<svg xmlns="http://www.w3.org/2000/svg"
     x="0px"
     y="0px"
     viewBox="0 0 1000 1000"
     style="fill: #8A2020"
>
    <g>
        <path class="p" d="M307.2,301.3c19.8,0,35.8,16,35.8,35.8c0,19.8-16,35.8-35.8,35.8c-19.8,0-35.8-16-35.8-35.8C271.4,317.4,287.4,301.3,307.2,301.3z"/>
        <rect class="l" x="387.2" y="306.8" width="348.2" height="60.6"/>
        <path class="p" d="M307.2,442.8c19.8,0,35.8,16,35.8,35.8c0,19.8-16,35.8-35.8,35.8c-19.8,0-35.8-16-35.8-35.8C271.4,458.8,287.4,442.8,307.2,442.8z"/>
        <rect class="l" x="387.2" y="448.2" width="348.2" height="60.6"/>
        <path class="p" d="M307.2,599.4c19.8,0,35.8,16,35.8,35.8s-16,35.8-35.8,35.8c-19.8,0-35.8-16-35.8-35.8C271.4,615.4,287.4,599.4,307.2,599.4z"/>
        <rect class="l" x="387.2" y="604.8" width="348.2" height="60.6"/>
        <path class="p" d="M307.2,740.8c19.8,0,35.8,16,35.8,35.8c0,19.7-16,35.8-35.8,35.8c-19.8,0-35.8-16-35.8-35.8C271.4,756.8,287.4,740.8,307.2,740.8z"/>
        <rect class="l" x="387.2" y="746.3" width="348.2" height="60.6"/>
        <path class="st2" d="M842.3,88.3H689v-48c0,0-114.5-30.3-190.9-30.3c-76.4,0-190.9,30.3-190.9,30.3v48H157.7c-22.3,0-40.4,18.1-40.4,40.4v820.9c0,22.3,18.1,40.4,40.4,40.4h684.5c22.3,0,40.4-18.1,40.4-40.4V128.7C882.7,106.4,864.5,88.3,842.3,88.3z M500,45c20.6,0,37.2,16.7,37.2,37.2c0,20.5-16.7,37.2-37.2,37.2c-20.6,0-37.3-16.7-37.3-37.2C462.8,61.6,479.4,45,500,45z M801.8,909.2H198.2V169.1h109v27.8H689v-27.8h112.8L801.8,909.2L801.8,909.2z"/>
    </g>
</svg>
